<?xml version="1.0" encoding="UTF-8" standalone="no"?>
<svg width="21px" height="21px" viewBox="0 0 21 21" version="1.1" xmlns="http://www.w3.org/2000/svg" xmlns:xlink="http://www.w3.org/1999/xlink">
    <!-- Generator: Sketch 42 (36781) - http://www.bohemiancoding.com/sketch -->
    <title>Combined Shape</title>
    <desc>Created with Sketch.</desc>
    <defs></defs>
    <g id="Icons-&amp;-Colors" stroke="none" stroke-width="1" fill="none" fill-rule="evenodd">
        <path d="M14.4242913,21 L19.5065668,21 C20.3250769,21 21,20.3313672 21,19.5065668 L21,1.49343323 C21,0.674923137 20.3313672,0 19.5065668,0 L1.49343323,0 C0.674923137,0 0,0.668632833 0,1.49343323 L0,19.5065668 C0,20.3250769 0.668632833,21 1.49343323,21 L11.3258635,21 L11.3258635,13.2819999 L8.73507559,13.2819999 L8.73507559,10.2179677 L11.3258635,10.2179677 L11.3258635,7.95835802 C11.3258635,5.33605459 12.894221,3.90817603 15.1848944,3.90817603 C16.2821114,3.90817603 17.2252116,3.99162299 17.5,4.02889647 L17.5,6.76933401 L15.9113072,6.77009469 C14.6654854,6.77009469 14.4242913,7.37460968 14.4242913,8.26171851 L14.4242913,10.2179677 L17.395418,10.2179677 L17.0085242,13.2819999 L14.4242913,13.2819999 L14.4242913,21 Z" id="Combined-Shape" fill="#FFFFFF"></path>
    </g>
</svg>